<svg width="208" height="590" viewBox="0 0 208 590" fill="none" xmlns="http://www.w3.org/2000/svg">
<path d="M13.5003 2.44432H80.1332C95.7555 2.44432 107.506 6.45031 115.385 14.4623C123.265 22.3385 127.204 33.5416 127.204 48.0718C127.204 62.602 123.061 73.941 114.774 82.0887C106.623 90.1007 94.3971 94.1067 78.0955 94.1067H43.047V142.178H13.5003V2.44432ZM77.4841 69.0523C83.8689 69.0523 88.7594 67.2191 92.1556 63.5526C95.5518 59.8861 97.2498 54.7258 97.2498 48.0718C97.2498 41.5536 95.5518 36.5291 92.1556 32.9984C88.7594 29.332 83.8689 27.4987 77.4841 27.4987H43.047V69.0523H77.4841Z" fill="url(#paint0_linear_411_4753)" fill-opacity="0.15"/>
<path d="M137.088 144.623C114.673 144.623 97.2849 138.648 84.9228 126.698C72.5608 114.612 66.3797 96.4831 66.3797 72.3114C66.3797 48.1397 72.5608 30.0788 84.9228 18.1288C97.2849 6.04292 114.673 0 137.088 0C159.639 0 177.095 6.04292 189.457 18.1288C201.819 30.0788 208 48.1397 208 72.3114C208 96.4831 201.819 114.612 189.457 126.698C177.095 138.648 159.639 144.623 137.088 144.623ZM137.088 119.568C150.401 119.568 160.454 115.766 167.246 108.162C174.174 100.421 177.638 89.4896 177.638 75.3668V69.256C177.638 55.1332 174.174 44.2695 167.246 36.6649C160.454 28.9246 150.401 25.0544 137.088 25.0544C123.775 25.0544 113.722 28.9246 106.93 36.6649C100.138 44.2695 96.7415 55.1332 96.7415 69.256V75.3668C96.7415 89.4896 100.138 100.421 106.93 108.162C113.722 115.766 123.775 119.568 137.088 119.568Z" fill="url(#paint1_linear_411_4753)" fill-opacity="0.15"/>
<path d="M12.9697 150.971H87.142C102.764 150.971 114.515 154.841 122.394 162.582C130.273 170.186 134.213 180.914 134.213 194.766C134.213 214.32 126.062 227.357 109.76 233.875L138.288 290.705H106.296L81.6402 238.56H42.5163V290.705H12.9697V150.971ZM84.493 213.913C90.8778 213.913 95.7683 212.215 99.1644 208.82C102.561 205.426 104.259 200.741 104.259 194.766C104.259 188.79 102.561 184.173 99.1644 180.914C95.7683 177.655 90.8778 176.026 84.493 176.026H42.5163V213.913H84.493Z" fill="url(#paint2_linear_411_4753)" fill-opacity="0.15"/>
<path d="M135.083 176.433H91.8834V150.971H207.829V176.433H164.629V290.705H135.083V176.433Z" fill="url(#paint3_linear_411_4753)" fill-opacity="0.15"/>
<path d="M24.6562 299.498H123.688L120.632 316.405H40.9578L33.2145 360.81H105.553L102.496 377.717H30.158L19.3582 439.232H0L24.6562 299.498Z" fill="url(#paint4_linear_411_4753)" fill-opacity="0.15"/>
<path d="M124.692 441.473C105.673 441.473 90.7982 436.72 80.0663 427.214C69.4702 417.573 64.1722 404.197 64.1722 387.087C64.1722 381.655 64.7835 375.137 66.0061 367.532C69.674 344.718 78.4361 327.269 92.2925 315.183C106.149 302.961 124.217 296.85 146.495 296.85C165.65 296.85 180.593 301.603 191.325 311.109C202.057 320.615 207.423 333.855 207.423 350.829C207.423 356.261 206.811 362.779 205.589 370.384C201.785 393.333 192.887 410.919 178.895 423.141C165.038 435.362 146.971 441.473 124.692 441.473ZM124.692 424.77C141.809 424.77 155.393 420.085 165.446 410.715C175.499 401.21 182.359 386.815 186.027 367.532C186.978 362.643 187.453 357.076 187.453 350.829C187.453 339.015 183.853 329.849 176.653 323.33C169.589 316.676 159.74 313.349 147.107 313.349C129.854 313.349 116.202 318.034 106.149 327.404C96.0962 336.774 89.236 351.101 85.5681 370.384C84.6172 375.272 84.1417 380.84 84.1417 387.087C84.1417 398.901 87.6737 408.135 94.7377 414.789C101.938 421.443 111.922 424.77 124.692 424.77Z" fill="url(#paint5_linear_411_4753)" fill-opacity="0.15"/>
<path d="M25.3858 448.025H44.744L23.1444 570.853H98.3356L95.279 587.759H0.729646L25.3858 448.025Z" fill="url(#paint6_linear_411_4753)" fill-opacity="0.15"/>
<path d="M112.653 448.025H132.011V587.759H112.653V448.025Z" fill="url(#paint7_linear_411_4753)" fill-opacity="0.15"/>
<path d="M124.692 590C105.673 590 90.7982 585.247 80.0663 575.741C69.4702 566.1 64.1722 552.724 64.1722 535.614C64.1722 530.182 64.7835 523.664 66.0061 516.059C69.674 493.245 78.4361 475.796 92.2925 463.71C106.149 451.488 124.217 445.377 146.495 445.377C165.65 445.377 180.593 450.13 191.325 459.636C202.057 469.142 207.423 482.382 207.423 499.356C207.423 504.788 206.811 511.306 205.589 518.911C201.785 541.86 192.887 559.446 178.895 571.668C165.038 583.889 146.971 590 124.692 590ZM124.692 573.297C141.809 573.297 155.393 568.612 165.446 559.242C175.499 549.736 182.359 535.342 186.027 516.059C186.978 511.17 187.453 505.603 187.453 499.356C187.453 487.542 183.853 478.376 176.653 471.857C169.589 465.203 159.74 461.876 147.107 461.876C129.854 461.876 116.202 466.561 106.149 475.931C96.0962 485.301 89.236 499.628 85.5681 518.911C84.6172 523.799 84.1417 529.367 84.1417 535.614C84.1417 547.428 87.6737 556.662 94.7377 563.316C101.938 569.97 111.922 573.297 124.692 573.297Z" fill="url(#paint8_linear_411_4753)" fill-opacity="0.15"/>
<defs>
<linearGradient id="paint0_linear_411_4753" x1="104" y1="93.1579" x2="104" y2="821.342" gradientUnits="userSpaceOnUse">
<stop stop-color="#00004D"/>
<stop offset="1" stop-color="#00004D" stop-opacity="0"/>
</linearGradient>
<linearGradient id="paint1_linear_411_4753" x1="104" y1="93.1579" x2="104" y2="821.342" gradientUnits="userSpaceOnUse">
<stop stop-color="#00004D"/>
<stop offset="1" stop-color="#00004D" stop-opacity="0"/>
</linearGradient>
<linearGradient id="paint2_linear_411_4753" x1="104" y1="93.1579" x2="104" y2="821.342" gradientUnits="userSpaceOnUse">
<stop stop-color="#00004D"/>
<stop offset="1" stop-color="#00004D" stop-opacity="0"/>
</linearGradient>
<linearGradient id="paint3_linear_411_4753" x1="104" y1="93.1579" x2="104" y2="821.342" gradientUnits="userSpaceOnUse">
<stop stop-color="#00004D"/>
<stop offset="1" stop-color="#00004D" stop-opacity="0"/>
</linearGradient>
<linearGradient id="paint4_linear_411_4753" x1="104" y1="93.1579" x2="104" y2="821.342" gradientUnits="userSpaceOnUse">
<stop stop-color="#00004D"/>
<stop offset="1" stop-color="#00004D" stop-opacity="0"/>
</linearGradient>
<linearGradient id="paint5_linear_411_4753" x1="104" y1="93.1579" x2="104" y2="821.342" gradientUnits="userSpaceOnUse">
<stop stop-color="#00004D"/>
<stop offset="1" stop-color="#00004D" stop-opacity="0"/>
</linearGradient>
<linearGradient id="paint6_linear_411_4753" x1="104" y1="93.1579" x2="104" y2="821.342" gradientUnits="userSpaceOnUse">
<stop stop-color="#00004D"/>
<stop offset="1" stop-color="#00004D" stop-opacity="0"/>
</linearGradient>
<linearGradient id="paint7_linear_411_4753" x1="104" y1="93.1579" x2="104" y2="821.342" gradientUnits="userSpaceOnUse">
<stop stop-color="#00004D"/>
<stop offset="1" stop-color="#00004D" stop-opacity="0"/>
</linearGradient>
<linearGradient id="paint8_linear_411_4753" x1="104" y1="93.1579" x2="104" y2="821.342" gradientUnits="userSpaceOnUse">
<stop stop-color="#00004D"/>
<stop offset="1" stop-color="#00004D" stop-opacity="0"/>
</linearGradient>
</defs>
</svg>
