<svg width="22" height="25" viewBox="0 0 22 25" fill="none" xmlns="http://www.w3.org/2000/svg">
<path d="M20.8353 18.8146C20.4643 19.6581 20.0251 20.4345 19.5163 21.1484C18.8227 22.1215 18.2548 22.7951 17.8172 23.1691C17.1387 23.7831 16.4118 24.0976 15.6334 24.1154C15.0746 24.1154 14.4007 23.959 13.6162 23.6416C12.8292 23.3256 12.106 23.1691 11.4446 23.1691C10.751 23.1691 10.0072 23.3256 9.21151 23.6416C8.41464 23.959 7.7727 24.1244 7.28188 24.1408C6.53544 24.1721 5.79143 23.8487 5.04877 23.1691C4.57477 22.7623 3.98189 22.0649 3.27165 21.0768C2.50961 20.0217 1.88311 18.7982 1.39229 17.4033C0.866652 15.8967 0.603149 14.4377 0.603149 13.0253C0.603149 11.4073 0.958424 10.0118 1.67003 8.84243C2.22929 7.90312 2.97331 7.16217 3.90451 6.61822C4.8357 6.07428 5.84186 5.79709 6.9254 5.77936C7.51828 5.77936 8.29577 5.95983 9.26194 6.31451C10.2254 6.67038 10.844 6.85085 11.1152 6.85085C11.318 6.85085 12.0052 6.63983 13.1703 6.21913C14.272 5.82898 15.2018 5.66744 15.9635 5.73107C18.0276 5.895 19.5784 6.69572 20.6097 8.13828C18.7636 9.23899 17.8505 10.7807 17.8686 12.7584C17.8853 14.2988 18.4532 15.5808 19.5693 16.5986C20.0751 17.071 20.64 17.4361 21.2684 17.6954C21.1321 18.0844 20.9883 18.457 20.8353 18.8146ZM16.1014 0.482995C16.1014 1.69041 15.6531 2.81778 14.7596 3.86125C13.6814 5.10174 12.3772 5.81855 10.9629 5.70544C10.9449 5.56059 10.9344 5.40814 10.9344 5.24793C10.9344 4.08881 11.4472 2.84833 12.3578 1.83406C12.8124 1.32052 13.3906 0.893515 14.0918 0.552887C14.7914 0.217341 15.4532 0.0317771 16.0756 0C16.0938 0.161413 16.1014 0.322836 16.1014 0.482979V0.482995Z" fill="url(#paint0_linear_411_4798)"/>
<defs>
<linearGradient id="paint0_linear_411_4798" x1="-3.0615" y1="-8.02428" x2="-12.7807" y2="9.16537" gradientUnits="userSpaceOnUse">
<stop stop-color="#374095"/>
<stop offset="1" stop-color="#00004D"/>
</linearGradient>
</defs>
</svg>
