<svg width="80" height="80" viewBox="0 0 80 80" fill="none" xmlns="http://www.w3.org/2000/svg">
<path d="M58.3418 50.3372L58.3545 40.8032C58.3545 40.5081 58.5921 40.2688 58.8852 40.2688H68.5596C69.0212 40.2688 69.2627 40.8211 68.9511 41.164L66.4852 43.8768C66.2944 44.0867 66.2984 44.4116 66.4827 44.6273C67.0874 45.3347 68.3309 46.9589 68.7567 48.7898C69.0151 49.9012 68.8341 51.205 68.5734 52.3093C68.0828 54.3868 66.9492 56.043 65.9556 57.1676C65.5766 57.5966 64.938 57.1216 65.0939 56.5693C65.3944 55.5043 65.581 54.1986 65.274 52.9576C64.7492 50.8362 63.2627 49.0656 62.589 48.3469C62.4009 48.1462 62.0937 48.1434 61.8897 48.3277L59.227 50.7349C58.8853 51.0437 58.3418 50.7995 58.3418 50.3372Z" fill="#fff"/>
<path d="M21.6592 32.6318L21.6592 42.1531C21.6592 42.4482 21.4213 42.6875 21.1278 42.6875L11.442 42.6875C10.9799 42.6875 10.7381 42.1352 11.0501 41.7923L13.5189 39.0795C13.7099 38.8696 13.7059 38.5447 13.5214 38.3291C12.9159 37.6216 11.671 35.9974 11.2447 34.1665C10.986 33.0551 11.1672 31.7513 11.4283 30.647C11.9194 28.5696 13.0544 26.9133 14.0491 25.7887C14.4286 25.3597 15.0679 25.8347 14.9119 26.3871C14.611 27.4521 14.4242 28.7577 14.7315 29.9987C15.2569 32.1201 16.7452 33.8907 17.4197 34.6094C17.608 34.8101 17.9156 34.8129 18.1198 34.6286L20.773 32.2341C21.1151 31.9253 21.6592 32.1695 21.6592 32.6318Z" fill="#fff"/>
<path d="M19.2402 54.9618C19.2402 54.4166 19.7215 53.9746 20.3152 53.9746H59.8197C60.1165 53.9746 60.3572 54.1956 60.3572 54.4682V55.6405C60.3572 58.0599 58.2215 60.0212 55.5871 60.0212H24.0103C21.3759 60.0212 19.2402 58.0599 19.2402 55.6405V54.9618Z" fill="#fff"/>
<path d="M25.958 31.6555C25.958 31.3662 26.1986 31.1316 26.4955 31.1316H31.4671C31.764 31.1316 32.0046 31.3662 32.0046 31.6555V51.4349C32.0046 51.7242 31.764 51.9588 31.4671 51.9588H29.1829C27.4018 51.9588 25.958 50.5513 25.958 48.8151V31.6555Z" fill="#fff"/>
<path d="M36.708 31.6793C36.708 31.3768 36.9423 31.1316 37.2313 31.1316H39.586C41.32 31.1316 42.7257 32.603 42.7257 34.418C42.7257 35.2239 42.1948 36.5907 41.6471 37.1319C40.7779 37.9908 39.4552 38.4016 39.4552 38.4016C39.4552 38.4016 40.7779 38.8784 41.6471 39.722C42.2147 40.2729 42.6605 41.2222 42.7257 41.9344C42.7908 42.6465 42.7257 48.6725 42.7257 48.6725C42.7257 50.4875 41.32 51.9588 39.586 51.9588H37.7546C37.1766 51.9588 36.708 51.4684 36.708 50.8634V31.6793Z" fill="#fff"/>
<path d="M59.9544 29.1162C60.2513 29.1162 60.4919 28.8757 60.4919 28.5791V27.7062C60.4919 25.0734 58.3232 23.0696 55.6887 23.0696L24.112 23.0696C21.4776 23.0696 19.375 25.0735 19.375 27.7062V28.5791C19.375 28.8757 19.6156 29.1162 19.9125 29.1162C19.9125 29.1162 44.0231 29.1162 45.0016 29.1162C46.7048 29.1162 47.6723 30.9442 47.8282 32.4321C47.8953 33.0737 47.8953 34.3138 47.8282 34.9422C47.761 35.5706 47.3229 36.5965 46.7681 37.144C45.9097 37.9912 44.6033 38.3963 44.6033 38.3963C44.6033 38.3963 45.9097 38.8666 46.7681 39.6987C47.3229 40.2364 47.761 41.2172 47.8282 41.8611C47.8953 42.5051 47.8953 47.8633 47.8282 48.4941C47.761 49.125 47.3229 50.1189 46.7681 50.6566C45.9097 51.4886 44.6033 51.9589 44.6033 51.9589H50.6499C52.4309 51.9589 53.7404 50.5489 53.8748 48.7176C53.8748 48.7176 54.2107 45.0565 53.8748 42.448C53.7253 41.2871 53.5388 40.5307 52.6804 39.6987C51.8219 38.8666 50.5155 38.3963 50.5155 38.3963C50.5155 38.3963 51.8219 37.9912 52.6804 37.144C53.5388 36.2969 53.7796 35.5293 53.8748 34.3447C53.942 33.5081 53.8748 32.2193 53.8748 32.2193C53.8748 30.7511 52.9366 29.5147 51.6046 29.1162L59.9544 29.1162Z" fill="#fff"/>
<path d="M39.2671 13.8685C39.4301 13.7746 39.6293 13.7746 39.7922 13.8685L48.3946 18.8258C48.8725 19.1012 48.6809 19.8447 48.1321 19.8447H30.9273C30.3785 19.8447 30.1869 19.1012 30.6648 18.8258L39.2671 13.8685Z" fill="#fff"/>
</svg>
