<svg width="22" height="24" viewBox="0 0 22 24" fill="none" xmlns="http://www.w3.org/2000/svg">
<g opacity="0.5">
<path fill-rule="evenodd" clip-rule="evenodd" d="M10.9358 23.4051C16.1021 25.7456 21.2684 20.7739 21.2684 15.6033C21.2684 10.4328 19.5463 3.90064 10.9358 8.5817C2.32526 3.90064 0.603149 10.4328 0.603149 15.6033C0.603149 20.7739 5.76947 25.7456 10.9358 23.4051Z" fill="url(#paint0_linear_411_4706)"/>
<path d="M5.48242 2.86114C8.3526 1.30079 10.9358 2.08098 13.2319 4.68155C10.3617 5.98185 7.20453 5.46173 5.48242 2.86114Z" fill="#00004D" fill-opacity="0.5"/>
<path d="M10.0747 5.20119C11.2228 1.3003 13.5189 0.26006 16.9631 0C16.3891 3.12071 14.38 5.46125 10.0747 5.20119Z" fill="url(#paint1_linear_411_4706)"/>
</g>
<defs>
<linearGradient id="paint0_linear_411_4706" x1="-3.0615" y1="1.31652" x2="-8.56491" y2="15.1193" gradientUnits="userSpaceOnUse">
<stop stop-color="#374095"/>
<stop offset="1" stop-color="#00004D"/>
</linearGradient>
<linearGradient id="paint1_linear_411_4706" x1="8.85316" y1="-1.73526" x2="7.2671" y2="2.58862" gradientUnits="userSpaceOnUse">
<stop stop-color="#374095"/>
<stop offset="1" stop-color="#00004D"/>
</linearGradient>
</defs>
</svg>
